<svg width="43" height="44" viewBox="0 0 43 44" fill="none" xmlns="http://www.w3.org/2000/svg">
<path d="M30.8924 2.33791C31.6161 1.59328 32.8548 2.30842 32.5717 3.30742L29.3665 14.6204C29.1966 15.22 29.6107 15.8273 30.2309 15.8882L41.9329 17.0375C42.9662 17.139 43.1794 18.5533 42.2219 18.9549L31.3786 23.5025C30.8039 23.7436 30.5873 24.4459 30.9264 24.9688L37.3239 34.8344C37.8888 35.7056 36.9159 36.754 36.005 36.2558L25.6888 30.6136C25.1421 30.3145 24.4579 30.5831 24.2605 31.1742L20.536 42.327C20.2072 43.3119 18.7809 43.205 18.6024 42.1821L16.5817 30.5988C16.4746 29.9848 15.8381 29.6174 15.2528 29.8316L4.21103 33.8734C3.23597 34.2303 2.43025 33.0485 3.11871 32.2713L10.915 23.4693C11.3282 23.0028 11.2187 22.276 10.6863 21.952L0.641862 15.8392C-0.245121 15.2994 0.176459 13.9327 1.2134 13.9863L12.956 14.5938C13.5784 14.6259 14.0783 14.0872 13.9996 13.4689L12.5162 1.8046C12.3852 0.774574 13.7166 0.252019 14.3212 1.09617L21.1677 10.6556C21.5305 11.1623 22.2635 11.2172 22.6978 10.7703L30.8924 2.33791Z" fill="#FF00F5"/>
</svg>
